<svg id="White" xmlns="http://www.w3.org/2000/svg" viewBox="0 0 161.77 146.9"><defs><style>.cls-1,.cls-2,.cls-3{fill:none;stroke:#fff;stroke-miterlimit:10;}.cls-1{stroke-width:10px;}.cls-2,.cls-3{stroke-width:5px;}.cls-3{stroke-linecap:round;}.cls-4{fill:#fff;}</style></defs><title>Monocle Logo Without Hat</title><circle class="cls-1" cx="112.04" cy="33.38" r="28.38"/><circle class="cls-2" cx="148" cy="33.38" r="4.05"/><line class="cls-3" x1="152.06" y1="33.38" x2="152.06" y2="92.12"/><path class="cls-4" d="M497.86,330c-3-3.1-10.51-4.05-12.79.56a3.79,3.79,0,0,0,.79,3.91c1.32,1.54,3.05.49,4.69.9,2.84.71,2,5.23.93,7.11-3.41,5.67-11.21,7-17.06,5.84-5.43-1.05-10-4.47-14.23-7.87-5.64-4.51-12.16-11.09-19.65-11.72a19.11,19.11,0,0,0-11.66,3.08,27.61,27.61,0,0,0-4.85,3.88c-1.23,1.21-2.21,2.42-3.36,2.47s-2.13-1.26-3.36-2.47a27.61,27.61,0,0,0-4.85-3.88,19.11,19.11,0,0,0-11.66-3.08c-7.49.64-14,7.21-19.65,11.72-4.27,3.41-8.8,6.82-14.23,7.87-5.85,1.11-13.66-.18-17.06-5.84-1.11-1.87-1.91-6.4.93-7.11,1.64-.41,3.37.65,4.69-.9a3.79,3.79,0,0,0,.79-3.91c-2.28-4.61-9.78-3.65-12.79-.56a12.44,12.44,0,0,0-3.69,8.33,24.23,24.23,0,0,0,7.51,17.34c6.47,6.05,15.42,8.22,23.91,9,12.63,1.11,25.88-2.55,37-8.63,3.58-2,8-6.24,12.46-6.57,4.41.33,8.87,4.62,12.46,6.57,11.13,6.08,24.38,9.73,37,8.63,8.49-.75,17.44-2.92,23.91-9a24.23,24.23,0,0,0,7.51-17.34A12.44,12.44,0,0,0,497.86,330Z" transform="translate(-339.78 -217.96)"/></svg>