<?xml version="1.0" encoding="utf-8"?>
<!-- Generator: Adobe Illustrator 24.1.2, SVG Export Plug-In . SVG Version: 6.00 Build 0)  -->
<svg version="1.1" id="Layer_1" xmlns="http://www.w3.org/2000/svg" xmlns:xlink="http://www.w3.org/1999/xlink" x="0px" y="0px"
	 width="1618px" height="1000px" viewBox="0 0 1618 1000" style="enable-background:new 0 0 1618 1000;" xml:space="preserve">
<style type="text/css">
	.st0{fill:#004A87;}
</style>
<g>
	<path class="st0" d="M575.12,420.63c-33.7,0-61.12,27.42-61.12,61.12c0,29.85,21.52,54.76,49.85,60.06
		c3.65,0.68,7.42,1.06,11.27,1.06c1.15,0,2.3-0.04,3.43-0.1c7.93-0.44,15.45-2.41,22.3-5.6c4.51-2.1,8.72-4.74,12.56-7.83
		c13.91-11.21,22.83-28.38,22.83-47.59C636.24,448.05,608.82,420.63,575.12,420.63z M610.28,522.35c-3.73,3.23-7.89,5.96-12.41,8.08
		c-5.56,2.61-11.63,4.29-18.02,4.85c-1.56,0.14-3.14,0.22-4.73,0.22c-3.37,0-6.66-0.33-9.86-0.92c-24.95-4.64-43.9-26.56-43.9-52.83
		c0-5,0.7-9.85,1.99-14.45c0.04-0.16,0.09-0.31,0.13-0.47c0.17-0.58,0.34-1.15,0.52-1.72c0.11-0.34,0.23-0.68,0.35-1.02
		c0.14-0.39,0.27-0.78,0.41-1.16c0.22-0.6,0.46-1.19,0.7-1.78c0.05-0.13,0.11-0.26,0.16-0.39c2.29-5.41,5.46-10.46,9.44-14.92
		l0.04,0.04c9.85-10.97,24.12-17.88,39.99-17.88c5.16,0,10.15,0.75,14.88,2.11l0.02-0.08c9.76,2.81,18.25,8.3,24.79,15.51
		c0.04,0.05,0.09,0.1,0.13,0.15c0.44,0.49,0.88,0.99,1.3,1.5c0.14,0.17,0.29,0.33,0.43,0.5c0.06,0.07,0.11,0.14,0.17,0.21
		c7.52,9.25,12.03,21.03,12.03,33.84C628.87,497.95,621.66,512.49,610.28,522.35z"/>
	<path class="st0" d="M580.59,456.08l-0.02,0.1l-3.55-7.9h-14.9h-3.67v15.6h10.43l7.02,16.2l-9.2,47.13
		c2.73,0.5,5.54,0.78,8.42,0.78c2.06,0,4.08-0.15,6.07-0.41l4.35-25.03l5.4,12.21l1.3,2.94l2.6,5.87c4.52-2.14,8.64-4.99,12.22-8.4
		L580.59,456.08z"/>
	<path class="st0" d="M620.56,545.3l-7.15-15.96c-3.83,3.09-8.05,5.72-12.56,7.83l18.67,42.2l34.34-76.64l12.35,73.03h15.62
		l-21.02-119.59L620.56,545.3z"/>
	<path class="st0" d="M563.85,541.81l-6.63,33.95h15.6l5.73-33c-1.14,0.06-2.28,0.1-3.43,0.1
		C571.27,542.87,567.51,542.5,563.85,541.81z"/>
	<path class="st0" d="M725.2,502.93c-22.01,0-37.98,15.75-37.98,37.46c0,21.46,16.33,37.63,37.98,37.63
		c21.65,0,37.98-16.18,37.98-37.63C763.18,518.69,747.2,502.93,725.2,502.93z M725.2,565.15c-13.98,0-23.01-9.65-23.01-24.58
		c0-18.27,12.4-24.75,23.01-24.75c10.62,0,23.01,6.48,23.01,24.75C748.21,555.5,739.17,565.15,725.2,565.15z"/>
	<path class="st0" d="M811.9,502.93c-2.85,0-11.53,0-18.95,8.3l-2.14,2.4v-8.79h-14.62v70.91h14.62v-33.98
		c0-23.99,7.92-25.97,16.74-25.97c7.72,0,14.65,1.56,14.65,20.4v39.55h14.62v-43.74c0-11.2-1.72-15.97-4.3-19.67
		C828,506.1,821.07,502.93,811.9,502.93z"/>
	<path class="st0" d="M886.58,502.93c-22.01,0-37.98,15.75-37.98,37.46c0,21.46,16.33,37.63,37.98,37.63
		c21.65,0,37.98-16.18,37.98-37.63C924.56,518.69,908.59,502.93,886.58,502.93z M886.58,565.15c-13.98,0-23.01-9.65-23.01-24.58
		c0-18.27,12.4-24.75,23.01-24.75c10.62,0,23.01,6.48,23.01,24.75C909.59,555.5,900.56,565.15,886.58,565.15z"/>
	<path class="st0" d="M945.91,513.38c-4.92,4.92-10.79,13.7-10.79,27.54c0,10.77,3.4,19.75,10.12,26.69
		c6.77,7.11,15.35,10.42,26.99,10.42c8.31,0,15.21-1.7,21.08-5.21v-15.34c-5.38,4.84-12.6,7.67-19.86,7.67
		c-6.32,0-12.13-2.23-16.38-6.29c-2.61-2.61-6.98-8.47-6.98-18.47c0-9.69,4.16-15.3,6.63-17.77c4.52-4.52,10.26-6.81,17.08-6.81
		c7.09,0,13.64,2.52,19.51,7.51v-15.66c-7.81-4.18-14.14-4.73-18.81-4.73C962.45,502.93,952.84,506.45,945.91,513.38z"/>
	<rect x="1008.77" y="451.17" class="st0" width="14.62" height="124.59"/>
	<path class="st0" d="M1104,553.9h-14.37c-1.38,2.24-3.51,5.05-6.51,7.34c-3.65,2.74-7.36,3.91-12.41,3.91
		c-3.81,0-9.4-0.53-13.94-5.07c-3.64-3.64-6.24-9.76-6.63-15.6l-0.09-1.31h52.72v-0.86c0-13.36-3.25-23.23-9.94-30.17
		c-4.04-4.2-11.25-9.21-22.64-9.21c-9.38,0-17.35,3.22-23.7,9.56c-7.2,7.36-11.33,18.04-11.33,29.29c0,10.8,3.71,20.45,10.44,27.19
		c6.26,6.26,13.62,9.05,23.88,9.05c8.14,0,15.58-1.91,20.96-5.39c3.11-1.96,6.11-4.77,8.66-8.05c0.01-0.01,0.01-0.01,0.02-0.02
		c1.04-1.13,1.87-2.4,2.53-3.65c0.04-0.07,0.09-0.13,0.13-0.2l-0.02-0.01C1103.53,557.23,1104,553.9,1104,553.9z M1051.39,530.18
		c0.94-3.95,2.98-7.6,5.55-9.99c2.31-2.31,6.42-5.07,12.89-5.07c6.16,0,10.11,2.45,12.34,4.51c2.89,2.7,4.88,6.47,5.6,10.62
		l0.25,1.44h-37L1051.39,530.18z"/>
</g>
</svg>
