<svg version="1.1" id="Layer_1" xmlns="http://www.w3.org/2000/svg" x="0" y="0" width="1618" height="1000" viewBox="0 0 1618 1000" xml:space="preserve"><style>.st0{fill:#004a87}</style><path class="st0" d="M575.12 420.63c-33.7 0-61.12 27.42-61.12 61.12 0 29.85 21.52 54.76 49.85 60.06 3.65.68 7.42 1.06 11.27 1.06 1.15 0 2.3-.04 3.43-.1 7.93-.44 15.45-2.41 22.3-5.6 4.51-2.1 8.72-4.74 12.56-7.83 13.91-11.21 22.83-28.38 22.83-47.59 0-33.7-27.42-61.12-61.12-61.12zm35.16 101.72a53.954 53.954 0 01-12.41 8.08 53.283 53.283 0 01-18.02 4.85c-1.56.14-3.14.22-4.73.22-3.37 0-6.66-.33-9.86-.92-24.95-4.64-43.9-26.56-43.9-52.83 0-5 .7-9.85 1.99-14.45.04-.16.09-.31.13-.47.17-.58.34-1.15.52-1.72.11-.34.23-.68.35-1.02.14-.39.27-.78.41-1.16.22-.6.46-1.19.7-1.78.05-.13.11-.26.16-.39a54.03 54.03 0 019.44-14.92l.04.04c9.85-10.97 24.12-17.88 39.99-17.88 5.16 0 10.15.75 14.88 2.11l.02-.08c9.76 2.81 18.25 8.3 24.79 15.51.04.05.09.1.13.15.44.49.88.99 1.3 1.5.14.17.29.33.43.5.06.07.11.14.17.21 7.52 9.25 12.03 21.03 12.03 33.84.03 16.21-7.18 30.75-18.56 40.61z"/><path class="st0" d="M580.59 456.08l-.02.1-3.55-7.9h-18.57v15.6h10.43l7.02 16.2-9.2 47.13c2.73.5 5.54.78 8.42.78 2.06 0 4.08-.15 6.07-.41l4.35-25.03 5.4 12.21 1.3 2.94 2.6 5.87c4.52-2.14 8.64-4.99 12.22-8.4l-26.47-59.09zm39.97 89.22l-7.15-15.96a61.514 61.514 0 01-12.56 7.83l18.67 42.2 34.34-76.64 12.35 73.03h15.62l-21.02-119.59-40.25 89.13zm-56.71-3.49l-6.63 33.95h15.6l5.73-33c-1.14.06-2.28.1-3.43.1-3.85.01-7.61-.36-11.27-1.05zm161.35-38.88c-22.01 0-37.98 15.75-37.98 37.46 0 21.46 16.33 37.63 37.98 37.63s37.98-16.18 37.98-37.63c0-21.7-15.98-37.46-37.98-37.46zm0 62.22c-13.98 0-23.01-9.65-23.01-24.58 0-18.27 12.4-24.75 23.01-24.75 10.62 0 23.01 6.48 23.01 24.75 0 14.93-9.04 24.58-23.01 24.58zm86.7-62.22c-2.85 0-11.53 0-18.95 8.3l-2.14 2.4v-8.79h-14.62v70.91h14.62v-33.98c0-23.99 7.92-25.97 16.74-25.97 7.72 0 14.65 1.56 14.65 20.4v39.55h14.62v-43.74c0-11.2-1.72-15.97-4.3-19.67-4.52-6.24-11.45-9.41-20.62-9.41zm74.68 0c-22.01 0-37.98 15.75-37.98 37.46 0 21.46 16.33 37.63 37.98 37.63s37.98-16.18 37.98-37.63c0-21.7-15.97-37.46-37.98-37.46zm0 62.22c-13.98 0-23.01-9.65-23.01-24.58 0-18.27 12.4-24.75 23.01-24.75 10.62 0 23.01 6.48 23.01 24.75 0 14.93-9.03 24.58-23.01 24.58zm59.33-51.77c-4.92 4.92-10.79 13.7-10.79 27.54 0 10.77 3.4 19.75 10.12 26.69 6.77 7.11 15.35 10.42 26.99 10.42 8.31 0 15.21-1.7 21.08-5.21v-15.34c-5.38 4.84-12.6 7.67-19.86 7.67-6.32 0-12.13-2.23-16.38-6.29-2.61-2.61-6.98-8.47-6.98-18.47 0-9.69 4.16-15.3 6.63-17.77 4.52-4.52 10.26-6.81 17.08-6.81 7.09 0 13.64 2.52 19.51 7.51v-15.66c-7.81-4.18-14.14-4.73-18.81-4.73-12.05 0-21.66 3.52-28.59 10.45zm62.86-62.21h14.62v124.59h-14.62zM1104 553.9h-14.37c-1.38 2.24-3.51 5.05-6.51 7.34-3.65 2.74-7.36 3.91-12.41 3.91-3.81 0-9.4-.53-13.94-5.07-3.64-3.64-6.24-9.76-6.63-15.6l-.09-1.31h52.72v-.86c0-13.36-3.25-23.23-9.94-30.17-4.04-4.2-11.25-9.21-22.64-9.21-9.38 0-17.35 3.22-23.7 9.56-7.2 7.36-11.33 18.04-11.33 29.29 0 10.8 3.71 20.45 10.44 27.19 6.26 6.26 13.62 9.05 23.88 9.05 8.14 0 15.58-1.91 20.96-5.39 3.11-1.96 6.11-4.77 8.66-8.05l.02-.02c1.04-1.13 1.87-2.4 2.53-3.65.04-.07.09-.13.13-.2l-.02-.01c1.77-3.47 2.24-6.8 2.24-6.8zm-52.61-23.72c.94-3.95 2.98-7.6 5.55-9.99 2.31-2.31 6.42-5.07 12.89-5.07 6.16 0 10.11 2.45 12.34 4.51 2.89 2.7 4.88 6.47 5.6 10.62l.25 1.44h-37l.37-1.51z"/></svg>